<svg
  xmlns="http://www.w3.org/2000/svg" 
  xmlns:xlink="http://www.w3.org/1999/xlink" 
  version="1.0" 
  x="0px" 
  y="0px" 
  viewBox="0 0 100 100" 
  enable-background="new 0 0 100 100" 
  xml:space="preserve">
    <path d="M38,87c0,1.656-1.343,3-3,3l0,0c-1.657,0-3-1.344-3-3V13c0-1.657,1.343-3,3-3l0,0c1.657,0,3,1.343,3,3V87z"/>
      <path d="M68,87c0,1.656-1.344,3-3,3l0,0c-1.656,0-3-1.344-3-3V13c0-1.657,1.344-3,3-3l0,0c1.656,0,3,1.343,3,3V87z"/>
      <path d="M90,35c0,1.657-1.343,3-3,3H13c-1.657,0-3-1.343-3-3l0,0c0-1.657,1.343-3,3-3h74C88.657,32,90,33.343,90,35L90,35z"/>
      <path d="M90,65c0,1.657-1.343,3-3,3H13c-1.657,0-3-1.343-3-3l0,0c0-1.657,1.343-3,3-3h74C88.657,62,90,63.343,90,65L90,65z"/>
  </svg>